<svg xmlns="http://www.w3.org/2000/svg" viewBox="0 0 64 64" role="img" aria-label="TripFlow">
  <defs>
    <linearGradient id="pin" x1="20" y1="8" x2="42" y2="54" gradientUnits="userSpaceOnUse">
      <stop stop-color="#08d5c9"/>
      <stop offset="0.5" stop-color="#079cf0"/>
      <stop offset="1" stop-color="#0c3198"/>
    </linearGradient>
    <linearGradient id="road" x1="39" y1="28" x2="22" y2="59" gradientUnits="userSpaceOnUse">
      <stop stop-color="#079cff"/>
      <stop offset="1" stop-color="#102883"/>
    </linearGradient>
  </defs>

  <!-- Location pin from the original TripFlow mark. -->
  <path fill="url(#pin)" d="M31.5 4.5C17.6 4.5 8.5 14.8 8.5 27.3c0 8.8 5.2 17.1 10.1 24.8l5.8-10.7c-3.7-5.5-6.1-10-6.1-14.5 0-7.6 5.8-13.3 13.2-13.3 5.3 0 9.2 2.4 12.1 6.8l7-6.4C46.1 7.7 39.4 4.5 31.5 4.5Zm20 23.2c-2.4 4.7-6.8 8.5-12.5 12.7-2.4 1.7-3.4 3.1-2.7 4.5l7.8 5.2c4.1-6.7 8-13.7 8-21.9l-.6-.5Z"/>

  <!-- Flowing route. -->
  <path fill="url(#road)" d="M48.2 25.1c-7.3 6.7-14.6 9.1-21 12.1-5.9 2.8-10.1 5.9-9.3 10.3.6 3.3 4.6 5.1 8.4 6.9 3.5 1.7 5.4 3 4.7 5.1-1 2.8-7.9 4.3-13 4.5 11.8 1.1 23.9-1 25-7.2.8-4.6-3.4-7.3-8.3-9.6-3.8-1.8-5.4-3.1-4.3-5.2 1.4-2.8 9.6-6.3 14.2-9.4 2.7-1.8 5-3.8 6.8-6l-3.2-1.5Z"/>

  <!-- Airplane. -->
  <path fill="#102b87" stroke="#07174f" stroke-width=".65" stroke-linejoin="round" d="m47 23.7-7.8-1.9 1-1.2 8.7.2 5.7-5.1c1.1-1 2.7-1.5 3.4-1 .7.6.2 2.2-.8 3.3l-5.1 5.7.2 8.7-1.2 1-2-7.8-3.2 3.1-2.9-.2 2-2.4-.2-2.9 2.2.5Z"/>
</svg>
